<?xml version="1.0" encoding="UTF-8"?>
<svg width="22px" height="22px" viewBox="0 0 22 22" version="1.1" xmlns="http://www.w3.org/2000/svg" xmlns:xlink="http://www.w3.org/1999/xlink">
    <!-- Generator: Sketch 51.3 (57544) - http://www.bohemiancoding.com/sketch -->
    <title>Daytime</title>
    <desc>Created with Sketch.</desc>
    <defs></defs>
    <g id="Page-1" stroke="none" stroke-width="1" fill="none" fill-rule="evenodd">
        <g id="Dark-UI-Menu" transform="translate(-1156.000000, -27.000000)" stroke="#FFFFFF">
            <g id="Theme-Button" transform="translate(1139.000000, 17.000000)">
                <g id="Daytime" transform="translate(18.000000, 11.000000)">
                    <g>
                        <g id="Group-5" transform="translate(9.090909, 0.000000)" stroke-linecap="square">
                            <path d="M0.909090909,0.303030303 L0.909090909,3.93939394" id="Line-4"></path>
                            <path d="M0.856060606,16.0606061 L0.856060606,19.6969697" id="Line-4"></path>
                        </g>
                        <g id="Group" transform="translate(10.000000, 10.000000) rotate(-270.000000) translate(-10.000000, -10.000000) translate(9.090909, 0.000000)" stroke-linecap="square">
                            <path d="M0.909090909,0.303030303 L0.909090909,3.93939394" id="Line-4"></path>
                            <path d="M0.856060606,16.0606061 L0.856060606,19.6969697" id="Line-4"></path>
                        </g>
                        <g id="Group" transform="translate(10.000000, 10.000000) rotate(-225.000000) translate(-10.000000, -10.000000) translate(9.090909, 0.000000)" stroke-linecap="square">
                            <path d="M0.909090909,0.303030303 L0.909090909,3.93939394" id="Line-4"></path>
                            <path d="M0.856060606,16.0606061 L0.856060606,19.6969697" id="Line-4"></path>
                        </g>
                        <g id="Group" transform="translate(10.000000, 10.000000) rotate(-135.000000) translate(-10.000000, -10.000000) translate(9.090909, 0.000000)" stroke-linecap="square">
                            <path d="M0.909090909,0.303030303 L0.909090909,3.93939394" id="Line-4"></path>
                            <path d="M0.856060606,16.0606061 L0.856060606,19.6969697" id="Line-4"></path>
                        </g>
                        <circle id="Oval-3" cx="10" cy="10" r="3.93939394"></circle>
                    </g>
                </g>
            </g>
        </g>
    </g>
</svg>